<svg height="448pt" viewBox="-2 0 448 448" width="448pt" xmlns="http://www.w3.org/2000/svg"><path d="m196.800781 8c0 4.417969-3.582031 8-8 8s-8-3.582031-8-8 3.582031-8 8-8 8 3.582031 8 8zm0 0"/><path d="m283.199219 16 44.800781-7.199219 5.601562-8.800781h-48.800781c-3.199219 0-6.402343 1.601562-9.601562 3.199219l-1.597657 1.601562zm0 0"/><path d="m348 116-116 51.199219c-2.398438.800781-5.601562.800781-8-.800781-12.800781-8.796876-29.601562-11.199219-44-5.597657-.800781 0-2.398438.800781-3.199219 0l-12.800781-.800781c-4 0-7.199219-4-7.199219-8v-24c0-3.199219 1.597657-5.601562 4.800781-7.199219l31.199219-15.199219 78.398438-78.402343-8-10.398438-84.800781 77.597657c-1.597657.800781-3.199219 1.601562-5.597657 1.601562h-48c-2.402343 0-4.800781-1.601562-6.402343-3.199219l-52-78.402343-11.199219 11.203124 44.800781 82.398438c.800781 2.398438 1.601562 4.800781.800781 7.199219l-2.402343 6.402343c-5.597657 15.199219.800781 32 15.203124 39.199219 1.597657.800781 2.398438 1.597657 3.199219 3.199219l24 40c.800781.800781.800781 2.398438.800781 4l8 136h24.796876l6.402343-112.800781c0-2.398438 1.597657-5.597657 4-6.398438l172.800781-95.199219-8.800781-11.203124zm0 0"/><path d="m49.601562 0h-49.601562l3.199219 8.800781 39.199219 6.398438 13.601562-13.597657c-2.398438-.800781-4.800781-1.601562-6.398438-1.601562zm0 0"/><path d="m416 79.199219c-.800781.800781-2.398438.800781-3.199219.800781h-26.402343l-6.398438 18.398438c-.800781 2.402343-2.398438 4-4 4.800781l-13.601562 5.601562 9.601562 12.800781 44.800781-24.800781 28-13.601562v-15.199219zm0 0"/><path d="m172.800781 367.199219.800781-7.199219h-22.402343l5.601562 88h9.597657l6.402343-33.601562c0-.796876.800781-2.398438.800781-3.199219l12.796876-19.199219-12.796876-19.199219c-.800781-1.601562-.800781-3.199219-.800781-5.601562zm0 0"/><path d="m168.800781 43.199219c3.199219-9.597657-1.601562-20-11.199219-24h-.800781c-4-1.597657-8-1.597657-11.199219-.800781 4.796876 6.402343 12 16 23.199219 24.800781zm0 0"/><path d="m132.800781 26.398438c-.800781.800781-.800781 1.601562-.800781 2.402343l-9.601562 22.398438c-4 9.601562.800781 21.601562 10.402343 25.601562h.800781c9.597657 4 21.597657-.800781 25.597657-10.402343l4-9.597657c-15.199219-8.800781-24.800781-20.800781-30.398438-30.402343zm0 0"/></svg>